<!-- icon666.com - MILLIONS vector ICONS FREE --><svg enable-background="new 0 0 64 64" viewBox="0 0 64 64" xmlns="http://www.w3.org/2000/svg"><g id="icon"><path d="m56 49c-2.4 0-4.4 1.7-4.9 4h-34.2c-.2-1.2-.9-2.2-1.8-2.9l1.5-3.1h35.9c2.5 0 4.6-1.8 5-4.3l2.9-20c.2-1.4-.2-2.9-1.2-4s-2.3-1.7-3.8-1.7h-44.2l-2.2-11.2c-.1-.5-.5-.8-1-.8h-4c-.6 0-1 .4-1 1s.4 1 1 1h3.2l7.8 38.9-1.7 3.3c-.4-.1-.9-.2-1.3-.2-2.8 0-5 2.2-5 5s2.2 5 5 5c2.4 0 4.4-1.7 4.9-4h34.2c.5 2.3 2.5 4 4.9 4 2.8 0 5-2.2 5-5s-2.2-5-5-5zm-.6-30c.9 0 1.7.4 2.3 1 .6.7.8 1.5.7 2.4l-2.9 20c-.2 1.5-1.5 2.6-3 2.6h-35.7l-5.2-26zm-43.4 38c-1.7 0-3-1.3-3-3s1.3-3 3-3 3 1.3 3 3-1.3 3-3 3zm44 0c-1.7 0-3-1.3-3-3s1.3-3 3-3 3 1.3 3 3-1.3 3-3 3z"></path></g></svg>