<!-- icon666.com - MILLIONS vector ICONS FREE --><svg id="Capa_1" enable-background="new 0 0 512 512" viewBox="0 0 512 512" xmlns="http://www.w3.org/2000/svg"><path d="m361 165c0-57.897-47.103-105-105-105s-105 47.103-105 105 47.103 105 105 105 105-47.103 105-105zm-180 0c0-41.355 33.645-75 75-75s75 33.645 75 75-33.645 75-75 75-75-33.645-75-75z" fill="#000000" style="fill: rgb(255, 255, 255);"></path><path d="m313.475 368.808c2.794-3.802 5.528-7.519 8.195-11.147 82.22-111.811 99.33-135.079 99.33-192.661 0-90.981-74.019-165-165-165s-165 74.019-165 165c0 57.605 17.095 80.85 99.241 192.546 2.695 3.665 5.457 7.42 8.281 11.262-47.628 11.897-77.522 37.69-77.522 68.192 0 53.532 80.78 75 135 75 55.149 0 135-21.879 135-75 0-30.503-29.895-56.296-77.525-68.192zm-192.475-203.808c0-74.439 60.561-135 135-135s135 60.561 135 135c0 47.739-12.456 64.678-93.499 174.888-12.382 16.838-26.079 35.465-41.501 56.618-15.458-21.201-29.185-39.864-41.591-56.734-80.965-110.09-93.409-127.011-93.409-174.772zm135 317c-60.096 0-105-23.758-105-45 0-14.53 23.459-33.86 66.97-41.69 19.095 26.078 29.42 40.38 38.03 52.219 8.626-11.862 18.965-26.181 38.029-52.219 43.512 7.83 66.971 27.16 66.971 41.69 0 21.242-44.904 45-105 45z" fill="#000000" style="fill: rgb(255, 255, 255);"></path></svg>