<!-- icon666.com - MILLIONS vector ICONS FREE --><svg id="Layer_1" viewBox="0 0 1000 1000" xmlns="http://www.w3.org/2000/svg" data-name="Layer 1"><path d="m722.89 725.6h-445.78a95.59 95.59 0 0 1 -95.49-95.49v-260.22a95.59 95.59 0 0 1 95.49-95.49h445.78a95.59 95.59 0 0 1 95.49 95.49v260.22a95.59 95.59 0 0 1 -95.49 95.49zm-445.78-403.46a47.8 47.8 0 0 0 -47.74 47.74v260.23a47.8 47.8 0 0 0 47.74 47.74h445.78a47.8 47.8 0 0 0 47.74-47.74v-260.22a47.8 47.8 0 0 0 -47.74-47.74z" fill="#000000" style="fill: rgb(255, 255, 255);"></path><path d="m500 554.43a105 105 0 0 1 -61.81-20.26l-152.76-110.43a23.87 23.87 0 1 1 28-38.69l152.73 110.43a57 57 0 0 0 67.69 0l152.75-110.43a23.87 23.87 0 0 1 28 38.69l-152.79 110.43a105 105 0 0 1 -61.81 20.26z" fill="#000000" style="fill: rgb(255, 255, 255);"></path></svg>